<mxfile host="Electron" agent="Mozilla/5.0 (Macintosh; Intel Mac OS X 10_15_7) AppleWebKit/537.36 (KHTML, like Gecko) draw.io/28.2.5 Chrome/138.0.7204.251 Electron/37.6.1 Safari/537.36" version="28.2.5" pages="2">
  <diagram name="Smart Manufacturing Data Hub" id="architecture">
    <mxGraphModel dx="1484" dy="1559" grid="1" gridSize="10" guides="1" tooltips="1" connect="1" arrows="1" fold="1" page="1" pageScale="1" pageWidth="1600" pageHeight="900" math="0" shadow="0">
      <root>
        <mxCell id="0" />
        <mxCell id="1" parent="0" />
        <mxCell id="layer-data" value="DATA PLATFORM (SNOWFLAKE)" style="rounded=1;whiteSpace=wrap;html=1;fillColor=#e8f4f8;strokeColor=#29b5e8;verticalAlign=top;fontStyle=1;fontSize=12;strokeWidth=2;dashed=1;" parent="1" vertex="1">
          <mxGeometry x="40" y="440" width="1520" height="140" as="geometry" />
        </mxCell>
        <mxCell id="layer-processing" value="PROCESSING LAYER" style="rounded=1;whiteSpace=wrap;html=1;fillColor=#fff3e0;strokeColor=#e65100;verticalAlign=top;fontStyle=1;fontSize=12;strokeWidth=2;dashed=1;" parent="1" vertex="1">
          <mxGeometry x="40" y="300" width="1520" height="120" as="geometry" />
        </mxCell>
        <mxCell id="vpc-boundary" value="VPC with PrivateLink" style="rounded=1;whiteSpace=wrap;html=1;fillColor=none;strokeColor=#e74c3c;strokeWidth=3;dashed=1;dashPattern=8 8;verticalAlign=top;fontStyle=1;fontSize=14;fontColor=#e74c3c;" parent="1" vertex="1">
          <mxGeometry x="300" y="280" width="820" height="310" as="geometry" />
        </mxCell>
        <mxCell id="layer-sources" value="DATA SOURCES" style="rounded=1;whiteSpace=wrap;html=1;fillColor=#e1f5fe;strokeColor=#01579b;verticalAlign=top;fontStyle=1;fontSize=12;strokeWidth=2;dashed=1;" parent="1" vertex="1">
          <mxGeometry x="40" y="40" width="1520" height="100" as="geometry" />
        </mxCell>
        <mxCell id="layer-ingestion" value="INGESTION LAYER" style="rounded=1;whiteSpace=wrap;html=1;fillColor=#fff3e0;strokeColor=#e65100;verticalAlign=top;fontStyle=1;fontSize=12;strokeWidth=2;dashed=1;" parent="1" vertex="1">
          <mxGeometry x="40" y="160" width="1520" height="110" as="geometry" />
        </mxCell>
        <mxCell id="layer-analytics" value="ANALYTICS LAYER" style="rounded=1;whiteSpace=wrap;html=1;fillColor=#f3e5f5;strokeColor=#6a1b9a;verticalAlign=top;fontStyle=1;fontSize=12;strokeWidth=2;dashed=1;" parent="1" vertex="1">
          <mxGeometry x="40" y="600" width="1520" height="120" as="geometry" />
        </mxCell>
        <mxCell id="layer-users" value="USER LAYER" style="rounded=1;whiteSpace=wrap;html=1;fillColor=#e8f5e9;strokeColor=#2e7d32;verticalAlign=top;fontStyle=1;fontSize=12;strokeWidth=2;dashed=1;" parent="1" vertex="1">
          <mxGeometry x="40" y="740" width="1520" height="100" as="geometry" />
        </mxCell>
        <mxCell id="sensor1" value="Machine Utilisation&lt;br&gt;Sensors&lt;br&gt;&lt;font size=&quot;1&quot;&gt;1 Hz, 30-45 sensors&lt;/font&gt;" style="rounded=1;whiteSpace=wrap;html=1;fillColor=#c8e6c9;strokeColor=#4caf50;strokeWidth=2;" parent="1" vertex="1">
          <mxGeometry x="320" y="70" width="140" height="60" as="geometry" />
        </mxCell>
        <mxCell id="sensor2" value="Air Quality&lt;br&gt;Sensors&lt;br&gt;&lt;font size=&quot;1&quot;&gt;1/30 Hz, 10-15 sensors&lt;/font&gt;" style="rounded=1;whiteSpace=wrap;html=1;fillColor=#c8e6c9;strokeColor=#4caf50;strokeWidth=2;" parent="1" vertex="1">
          <mxGeometry x="500" y="70" width="140" height="60" as="geometry" />
        </mxCell>
        <mxCell id="osm" value="OpenSmartMonitor&lt;br&gt;&lt;font size=&quot;1&quot;&gt;LoRaWAN/MQTT&lt;/font&gt;" style="rounded=1;whiteSpace=wrap;html=1;fillColor=#c8e6c9;strokeColor=#4caf50;strokeWidth=2;" parent="1" vertex="1">
          <mxGeometry x="680" y="70" width="140" height="60" as="geometry" />
        </mxCell>
        <mxCell id="files" value="File Uploads&lt;br&gt;&lt;font size=&quot;1&quot;&gt;CSV/JSON/PDF&lt;br&gt;Weekly/Monthly&lt;/font&gt;" style="rounded=1;whiteSpace=wrap;html=1;fillColor=#e1bee7;strokeColor=#9c27b0;strokeWidth=2;" parent="1" vertex="1">
          <mxGeometry x="860" y="70" width="140" height="60" as="geometry" />
        </mxCell>
        <mxCell id="iot-core" value="AWS IoT Core&lt;br&gt;&lt;font size=&quot;1&quot;&gt;MQTT Broker&lt;br&gt;v3/v5 Support&lt;/font&gt;" style="rounded=1;whiteSpace=wrap;html=1;fillColor=#ffe0b2;strokeColor=#ff9800;strokeWidth=2;shadow=1;" parent="1" vertex="1">
          <mxGeometry x="410" y="190" width="140" height="60" as="geometry" />
        </mxCell>
        <mxCell id="iot-rules" value="IoT Rules Engine&lt;br&gt;&lt;font size=&quot;1&quot;&gt;Message Routing&lt;/font&gt;" style="rounded=1;whiteSpace=wrap;html=1;fillColor=#ffe0b2;strokeColor=#ff9800;strokeWidth=2;shadow=1;" parent="1" vertex="1">
          <mxGeometry x="590" y="190" width="140" height="60" as="geometry" />
        </mxCell>
        <mxCell id="api-gateway" value="API Gateway&lt;br&gt;&lt;font size=&quot;1&quot;&gt;REST APIs&lt;br&gt;File Upload&lt;/font&gt;" style="rounded=1;whiteSpace=wrap;html=1;fillColor=#ffe0b2;strokeColor=#ff9800;strokeWidth=2;shadow=1;" parent="1" vertex="1">
          <mxGeometry x="770" y="190" width="140" height="60" as="geometry" />
        </mxCell>
        <mxCell id="kinesis" value="Kinesis Firehose&lt;br&gt;&lt;font size=&quot;1&quot;&gt;Buffer &amp; Compress&lt;br&gt;10MB GZIP&lt;/font&gt;" style="rounded=1;whiteSpace=wrap;html=1;fillColor=#ffe0b2;strokeColor=#ff9800;strokeWidth=2;shadow=1;" parent="1" vertex="1">
          <mxGeometry x="410" y="330" width="140" height="60" as="geometry" />
        </mxCell>
        <mxCell id="s3" value="S3 Buckets&lt;br&gt;&lt;font size=&quot;1&quot;&gt;Staging Area&lt;br&gt;Per-tenant prefixes&lt;/font&gt;" style="rounded=1;whiteSpace=wrap;html=1;fillColor=#ffe0b2;strokeColor=#ff9800;strokeWidth=2;shadow=1;" parent="1" vertex="1">
          <mxGeometry x="770" y="330" width="140" height="60" as="geometry" />
        </mxCell>
        <mxCell id="sqs" value="SQS&lt;br&gt;&lt;font size=&quot;1&quot;&gt;Event Notifications&lt;br&gt;Auto-ingest trigger&lt;/font&gt;" style="rounded=1;whiteSpace=wrap;html=1;fillColor=#ffe0b2;strokeColor=#ff9800;strokeWidth=2;shadow=1;" parent="1" vertex="1">
          <mxGeometry x="950" y="330" width="140" height="60" as="geometry" />
        </mxCell>
        <mxCell id="snowpipe" value="Snowpipe&lt;br&gt;&lt;font size=&quot;1&quot;&gt;Auto-ingest&lt;br&gt;Real-time loading&lt;/font&gt;" style="rounded=1;whiteSpace=wrap;html=1;fillColor=#bbdefb;strokeColor=#1976d2;strokeWidth=2;shadow=1;" parent="1" vertex="1">
          <mxGeometry x="320" y="480" width="140" height="60" as="geometry" />
        </mxCell>
        <mxCell id="storage-int" value="Storage Integration&lt;br&gt;&lt;font size=&quot;1&quot;&gt;IAM Role&lt;br&gt;S3 Access&lt;/font&gt;" style="rounded=1;whiteSpace=wrap;html=1;fillColor=#bbdefb;strokeColor=#1976d2;strokeWidth=2;shadow=1;" parent="1" vertex="1">
          <mxGeometry x="500" y="480" width="140" height="60" as="geometry" />
        </mxCell>
        <mxCell id="raw-tables" value="Raw Tables&lt;br&gt;&lt;font size=&quot;1&quot;&gt;Time-series data&lt;br&gt;Row-level security&lt;/font&gt;" style="rounded=1;whiteSpace=wrap;html=1;fillColor=#bbdefb;strokeColor=#1976d2;strokeWidth=2;shadow=1;" parent="1" vertex="1">
          <mxGeometry x="680" y="480" width="140" height="60" as="geometry" />
        </mxCell>
        <mxCell id="warehouses" value="Virtual Warehouses&lt;br&gt;&lt;font size=&quot;1&quot;&gt;S/M/L Compute&lt;br&gt;Auto-suspend&lt;/font&gt;" style="rounded=1;whiteSpace=wrap;html=1;fillColor=#bbdefb;strokeColor=#1976d2;strokeWidth=2;shadow=1;" parent="1" vertex="1">
          <mxGeometry x="860" y="480" width="140" height="60" as="geometry" />
        </mxCell>
        <mxCell id="aggregations" value="Aggregations&lt;br&gt;&lt;font size=&quot;1&quot;&gt;Minute/Hour/Day&lt;br&gt;Materialized Views&lt;/font&gt;" style="rounded=1;whiteSpace=wrap;html=1;fillColor=#bbdefb;strokeColor=#1976d2;strokeWidth=2;shadow=1;" parent="1" vertex="1">
          <mxGeometry x="1040" y="480" width="140" height="60" as="geometry" />
        </mxCell>
        <mxCell id="ml-models" value="ML Models&lt;br&gt;&lt;font size=&quot;1&quot;&gt;Anomaly Detection&lt;br&gt;Forecasting&lt;/font&gt;" style="rounded=1;whiteSpace=wrap;html=1;fillColor=#bbdefb;strokeColor=#1976d2;strokeWidth=2;shadow=1;" parent="1" vertex="1">
          <mxGeometry x="1220" y="480" width="140" height="60" as="geometry" />
        </mxCell>
        <mxCell id="powerbi" value="PowerBI Embedded&lt;br&gt;&lt;font size=&quot;1&quot;&gt;Service Principal&lt;br&gt;Workspaces/tenant&lt;/font&gt;" style="rounded=1;whiteSpace=wrap;html=1;fillColor=#fff9c4;strokeColor=#f9a825;strokeWidth=2;shadow=1;" parent="1" vertex="1">
          <mxGeometry x="410" y="630" width="140" height="60" as="geometry" />
        </mxCell>
        <mxCell id="quicksight" value="QuickSight&lt;br&gt;&lt;font size=&quot;1&quot;&gt;RLS with Tags&lt;br&gt;Embedded&lt;/font&gt;" style="rounded=1;whiteSpace=wrap;html=1;fillColor=#ffe0b2;strokeColor=#ff9800;strokeWidth=2;shadow=1;" parent="1" vertex="1">
          <mxGeometry x="590" y="630" width="140" height="60" as="geometry" />
        </mxCell>
        <mxCell id="tableau" value="Tableau&lt;br&gt;&lt;font size=&quot;1&quot;&gt;Advanced Analytics&lt;br&gt;Self-service&lt;/font&gt;" style="rounded=1;whiteSpace=wrap;html=1;fillColor=#e1bee7;strokeColor=#9c27b0;strokeWidth=2;shadow=1;" parent="1" vertex="1">
          <mxGeometry x="770" y="630" width="140" height="60" as="geometry" />
        </mxCell>
        <mxCell id="snowsight" value="Snowsight&lt;br&gt;&lt;font size=&quot;1&quot;&gt;Native SQL&lt;br&gt;Worksheets&lt;/font&gt;" style="rounded=1;whiteSpace=wrap;html=1;fillColor=#bbdefb;strokeColor=#1976d2;strokeWidth=2;shadow=1;" parent="1" vertex="1">
          <mxGeometry x="950" y="630" width="140" height="60" as="geometry" />
        </mxCell>
        <mxCell id="portal" value="Web Portal&lt;br&gt;&lt;font size=&quot;1&quot;&gt;React/Angular&lt;br&gt;File Upload UI&lt;/font&gt;" style="rounded=1;whiteSpace=wrap;html=1;fillColor=#ffccbc;strokeColor=#d84315;strokeWidth=2;shadow=1;" parent="1" vertex="1">
          <mxGeometry x="500" y="770" width="140" height="60" as="geometry" />
        </mxCell>
        <mxCell id="cognito" value="AWS Cognito&lt;br&gt;&lt;font size=&quot;1&quot;&gt;Auth &amp; SSO&lt;br&gt;User Management&lt;/font&gt;" style="rounded=1;whiteSpace=wrap;html=1;fillColor=#ffe0b2;strokeColor=#ff9800;strokeWidth=2;shadow=1;" parent="1" vertex="1">
          <mxGeometry x="680" y="770" width="140" height="60" as="geometry" />
        </mxCell>
        <mxCell id="users" value="End Users&lt;br&gt;&lt;font size=&quot;1&quot;&gt;20-40 Users&lt;br&gt;2-4 per Company&lt;/font&gt;" style="rounded=1;whiteSpace=wrap;html=1;fillColor=#c8e6c9;strokeColor=#4caf50;strokeWidth=2;shadow=1;" parent="1" vertex="1">
          <mxGeometry x="860" y="770" width="140" height="60" as="geometry" />
        </mxCell>
        <mxCell id="arrow1" style="edgeStyle=orthogonalEdgeStyle;rounded=0;orthogonalLoop=1;jettySize=auto;html=1;strokeWidth=2;strokeColor=#666666;endArrow=classic;endFill=1;" parent="1" source="sensor1" target="iot-core" edge="1">
          <mxGeometry relative="1" as="geometry">
            <Array as="points">
              <mxPoint x="390" y="150" />
              <mxPoint x="480" y="150" />
            </Array>
          </mxGeometry>
        </mxCell>
        <mxCell id="arrow2" style="edgeStyle=orthogonalEdgeStyle;rounded=0;orthogonalLoop=1;jettySize=auto;html=1;strokeWidth=2;strokeColor=#666666;endArrow=classic;endFill=1;" parent="1" source="iot-core" target="iot-rules" edge="1">
          <mxGeometry relative="1" as="geometry" />
        </mxCell>
        <mxCell id="arrow3" style="edgeStyle=orthogonalEdgeStyle;rounded=0;orthogonalLoop=1;jettySize=auto;html=1;strokeWidth=2;strokeColor=#666666;endArrow=classic;endFill=1;" parent="1" source="iot-rules" target="kinesis" edge="1">
          <mxGeometry relative="1" as="geometry">
            <Array as="points">
              <mxPoint x="660" y="290" />
              <mxPoint x="480" y="290" />
            </Array>
          </mxGeometry>
        </mxCell>
        <mxCell id="arrow4" style="edgeStyle=orthogonalEdgeStyle;rounded=0;orthogonalLoop=1;jettySize=auto;html=1;strokeWidth=2;strokeColor=#666666;endArrow=classic;endFill=1;" parent="1" source="kinesis" target="s3" edge="1">
          <mxGeometry relative="1" as="geometry" />
        </mxCell>
        <mxCell id="arrow5" style="edgeStyle=orthogonalEdgeStyle;rounded=0;orthogonalLoop=1;jettySize=auto;html=1;strokeWidth=2;strokeColor=#666666;endArrow=classic;endFill=1;exitX=0.5;exitY=1;exitDx=0;exitDy=0;entryX=0.5;entryY=0;entryDx=0;entryDy=0;" parent="1" source="s3" target="snowpipe" edge="1">
          <mxGeometry relative="1" as="geometry">
            <mxPoint x="840" y="410" as="sourcePoint" />
            <Array as="points">
              <mxPoint x="840" y="430" />
              <mxPoint x="390" y="430" />
            </Array>
          </mxGeometry>
        </mxCell>
        <mxCell id="mt-label1" value="MULTI-TENANT" style="rounded=1;whiteSpace=wrap;html=1;fillColor=#9c27b0;fontColor=#ffffff;fontSize=10;fontStyle=1;" parent="1" vertex="1">
          <mxGeometry x="870" y="320" width="80" height="20" as="geometry" />
        </mxCell>
        <mxCell id="mt-label2" value="RLS" style="rounded=1;whiteSpace=wrap;html=1;fillColor=#9c27b0;fontColor=#ffffff;fontSize=10;fontStyle=1;" parent="1" vertex="1">
          <mxGeometry x="790" y="470" width="40" height="20" as="geometry" />
        </mxCell>
        <mxCell id="7kCGyg8oxlNuaSmKWtxu-1" style="edgeStyle=orthogonalEdgeStyle;rounded=0;orthogonalLoop=1;jettySize=auto;html=1;strokeWidth=2;strokeColor=#666666;endArrow=classic;endFill=1;exitX=0.5;exitY=1;exitDx=0;exitDy=0;entryX=0.5;entryY=0;entryDx=0;entryDy=0;" parent="1" source="sensor2" target="iot-core" edge="1">
          <mxGeometry relative="1" as="geometry">
            <mxPoint x="440" y="140" as="sourcePoint" />
            <mxPoint x="530" y="200" as="targetPoint" />
            <Array as="points">
              <mxPoint x="570" y="150" />
              <mxPoint x="480" y="150" />
            </Array>
          </mxGeometry>
        </mxCell>
        <mxCell id="lambda" value="Lambda Functions&lt;br&gt;&lt;font size=&quot;1&quot;&gt;Transform&lt;br&gt;Validate&lt;/font&gt;" style="rounded=1;whiteSpace=wrap;html=1;fillColor=#ffe0b2;strokeColor=#ff9800;strokeWidth=2;shadow=1;" parent="1" vertex="1">
          <mxGeometry x="590" y="330" width="140" height="60" as="geometry" />
        </mxCell>
      </root>
    </mxGraphModel>
  </diagram>
  <diagram id="CH9NCuDyq--NntTYCnG1" name="Page-2">
    <mxGraphModel dx="1659" dy="1559" grid="1" gridSize="10" guides="1" tooltips="1" connect="1" arrows="1" fold="1" page="1" pageScale="1" pageWidth="1169" pageHeight="827" math="0" shadow="0">
      <root>
        <mxCell id="0" />
        <mxCell id="1" parent="0" />
      </root>
    </mxGraphModel>
  </diagram>
</mxfile>
